<mxfile host="app.diagrams.net" modified="2023-12-12T15:49:59.735Z" agent="Mozilla/5.0 (Windows NT 10.0; Win64; x64) AppleWebKit/537.36 (KHTML, like Gecko) Chrome/120.0.0.0 Safari/537.36" version="22.1.7" etag="qOLXfWa04NuZn-0trb8T" type="github">
  <diagram name="Page-1" id="aCcWEt41rh4p7NLnm21A">
    <mxGraphModel>
      <root>
        <mxCell id="0" />
        <mxCell id="1" parent="0" />
      </root>
    </mxGraphModel>
  </diagram>
</mxfile>
